<svg id="undraw_adventure_4hum" xmlns="http://www.w3.org/2000/svg" width="226.983" height="254.01" viewBox="0 0 226.983 254.01">
  <path id="Path_119" data-name="Path 119" d="M623.634,248.619l-49.594-65.645a16.328,16.328,0,0,1-8.021,4.29c-9.337,1.948-18.455-4.806-20.366-15.084a19.69,19.69,0,0,1,6.209-18.56l-16.91-22.383-96.339,87.214L527.3,335.833Z" transform="translate(-420.961 -131.237)" fill="#f2f2f2"/>
  <ellipse id="Ellipse_59" data-name="Ellipse 59" cx="13.981" cy="14.81" rx="13.981" ry="14.81" transform="translate(127.07 23.289)" fill="#f2f2f2"/>
  <path id="Path_125" data-name="Path 125" d="M1.378.528,8.142.337l-.558,19.53-6.765.192Z" transform="translate(47.989 110.028) rotate(-49.171)" fill="#6c63ff"/>
  <path id="Path_126" data-name="Path 126" d="M1.223.522,7.988.33,7.493,17.642l-6.765.192Z" transform="translate(140.743 203.697) rotate(-49.171)" fill="#6c63ff"/>
  <path id="Path_120" data-name="Path 120" d="M629.262,427.974v.407q-.013,1.532-.083,3.049c-1.725,35.953-29.634,64.235-63.619,64.471s-62.241-27.657-64.41-63.583q-.131-2.155-.131-4.343a70.363,70.363,0,0,1,11.79-39.26q.923-1.386,1.919-2.721c.458-.619.929-1.224,1.4-1.825,22.516-28.254,62.229-32.245,89.36-8.982.772.661,1.531,1.345,2.273,2.042q.89.839,1.749,1.714a69.422,69.422,0,0,1,19.525,43.321Q629.262,425.091,629.262,427.974Z" transform="translate(-459.963 -269.164)" fill="#3f3d56"/>
  <path id="Path_121" data-name="Path 121" d="M551.691,528.6c-39.806,0-72.191-34.3-72.191-76.468a78.753,78.753,0,0,1,19.262-52l1.6,1.572a76.372,76.372,0,0,0-18.68,50.43c0,40.89,31.406,74.158,70.01,74.158a67.62,67.62,0,0,0,50.26-22.532l1.566,1.608A69.726,69.726,0,0,1,551.691,528.6Z" transform="translate(-446.514 -293.323)" fill="#6c63ff"/>
  <rect id="Rectangle_26" data-name="Rectangle 26" width="18.32" height="19.406" transform="translate(97.325 233.661)" fill="#6c63ff"/>
  <path id="Path_122" data-name="Path 122" d="M514.729,422.589a.354.354,0,0,1,.087.055c.345.3-.087.878-.035,1.354.061.61.829.744,1.409.8s1.313.559,1.038,1.1c-1.457.531-2.931.009-4.419-.6a70.363,70.363,0,0,0-11.79,39.259q0,2.19.131,4.343a1.628,1.628,0,0,0,.4.226,8.1,8.1,0,0,1,1.344.393c.318.2.532.55.851.735.912.527,2.177-.485,3.027.143a8.088,8.088,0,0,1,.624.675c.785.721,2.076.236,2.984.776a3.732,3.732,0,0,1,1.2,1.668c.781,1.571,2.046,3.114,3.716,3.239a9.455,9.455,0,0,1,1.579.055,1.14,1.14,0,0,1,.938,1.15c-.144.947.3,1.982.179,2.929-.214,1.733-2.53,2.49-2.726,4.223a11.03,11.03,0,0,1-.061,1.141c-.1.453-.427.822-.541,1.275a2.482,2.482,0,0,0,.995,2.282,6.078,6.078,0,0,1,1.745,1.88,10.241,10.241,0,0,1,.305,2.777c.262,2.028,1.915,3.53,3.616,4.5a3.8,3.8,0,0,1,1.413,1.09,6.327,6.327,0,0,1,.541,2.352c.358,1.954,1.911,3.567,1.954,5.558.031,1.418-.711,2.7-1.156,4.038a9.843,9.843,0,0,0-.4,4.362,64.709,64.709,0,0,0,7.908,6.076,2.513,2.513,0,0,0,.327-.776,1.571,1.571,0,0,0-.676-1.589,3.568,3.568,0,0,0,1.252-.85,1.359,1.359,0,0,0,.227-1.469,2.321,2.321,0,0,0,2.185-.471,2.171,2.171,0,0,0,.218-1.88,8.14,8.14,0,0,1-.436-1.913,30.688,30.688,0,0,0,5.33-.189,3.634,3.634,0,0,0-1.623-2.153,2.907,2.907,0,0,0,1.784-1.978,5.325,5.325,0,0,0,.035-2.555,1.436,1.436,0,0,1-.026-.665,1.271,1.271,0,0,1,.637-.652q1.989-1.213,3.978-2.421a2.413,2.413,0,0,0,.637-.494,2.114,2.114,0,0,0,.14-1.945,10.2,10.2,0,0,1-.637-1.922c-.244-2.019,1.8-3.47,2.486-5.374a8.506,8.506,0,0,0,.375-2.352,2.915,2.915,0,0,0-.558-2.4c-.6-.531-1.527-.411-2.151-.906-.571-.453-.768-1.326-1.391-1.691-.567-.333-1.274-.12-1.906-.277-1.108-.273-1.806-1.626-2.94-1.751-.637-.074-1.361.259-1.884-.134-.462-.351-.48-1.049-.567-1.64a4.462,4.462,0,0,0-3.49-3.706,4.643,4.643,0,0,1-1.937-.453c-.567-.388-.824-1.114-1.274-1.654a5.207,5.207,0,0,0-2.909-1.437q-2.159-.534-4.314-1.072c-.763-.194-1.749-.3-2.164.416a3.262,3.262,0,0,0-.253.855,2.527,2.527,0,0,1-2.347,1.867,2.8,2.8,0,0,0-1.631-1.34,9.814,9.814,0,0,1-1.326-.333,1.94,1.94,0,0,1-.956-1.182,2.072,2.072,0,0,1,.154-1.548,2.561,2.561,0,0,0-.4-2.943,3.6,3.6,0,0,0-2.779-.8c-.257-.6.174-1.266.637-1.7s1.029-.855,1.13-1.5a1.527,1.527,0,0,0-1.993-1.488,3.6,3.6,0,0,0-1.915,2.2,6.8,6.8,0,0,1-.772,1.566,1.478,1.478,0,0,1-1.466.638c-.768-.208-1.06-1.174-1.23-1.987a13.679,13.679,0,0,1-.41-3.331,4.483,4.483,0,0,1,1.186-3.031c1.269-1.238,3.223-1.118,4.938-.919a1.391,1.391,0,0,1,.131-1.756,1.809,1.809,0,0,1,1.71-.444,2.326,2.326,0,0,1,1.322.836,13.323,13.323,0,0,1,.995,2.195c.371.716,1.2,1.326,1.876.943a1.736,1.736,0,0,0,.537-1.881,7.342,7.342,0,0,1-.406-2.056c.1-1.335,1.413-2.144,2.569-2.694s2.478-1.294,2.661-2.624a2.578,2.578,0,0,1,.14-.758,1.435,1.435,0,0,1,.519-.517c3.372-2.361,6.8-4.754,10.661-6.044.2-.069.222,0,.427-.046.288-.176.1-.661-.179-.855s-.641-.347-.711-.688a2.415,2.415,0,0,1,.127-.753.964.964,0,0,0-.344-.8.848.848,0,0,0-.821-.148c-.31-.434.3-.938.8-1.086a20.69,20.69,0,0,1,4.558-.785.773.773,0,0,1,.519.092.682.682,0,0,1,.039.9,4.892,4.892,0,0,1-.694.67,2.1,2.1,0,0,0-.5,2.028,4.163,4.163,0,0,0,2.574.73,1.593,1.593,0,0,0,1.261-2.061c-.388-.79-1.562-.97-1.762-1.834-.236-1.012,1.117-1.913.811-2.9-.131-.434-.541-.693-.855-1a2.853,2.853,0,0,1-.563-3.022,3.136,3.136,0,0,1-2.844-.943c-.68-.725-1.221-1.876-2.19-1.839-.885.028-1.649,1.123-2.478.79-.205-.083-.419-.249-.615-.152a.544.544,0,0,0-.231.4c-.209,1.067.153,2.282-.4,3.207-.6,1-1.98,1.141-2.7,2.047-.393.49-.545,1.15-.907,1.668s-1.125.85-1.562.4a2.367,2.367,0,0,0-.585-2.772,5.494,5.494,0,0,0-1.291-.665,7.553,7.553,0,0,1-1.444-.85,1.485,1.485,0,0,1-.528-.6,1.458,1.458,0,0,1,.035-.952,3.733,3.733,0,0,1,2.918-2.56c.576-.083,1.247-.055,1.631-.522.2-.245.305-.619.6-.716a.833.833,0,0,1,.554.069l2.155.8a1.4,1.4,0,0,0,.768.134.54.54,0,0,0,.449-.578c-.07-.379-.619-.559-.567-.943a.608.608,0,0,1,.179-.323,7.487,7.487,0,0,1,6.111-2.555c.27.476-.157,1.035-.519,1.437s-.646,1.127-.209,1.437a1.1,1.1,0,0,0,.571.139,4.78,4.78,0,0,1,1.527.49c.746.342,1.479.721,2.194,1.127a3.1,3.1,0,0,1,.052-1.5.951.951,0,0,1,1.134-.651c.427.176.646.776,1.1.832.606.074.846-.878.593-1.469s-.759-1.081-.8-1.733c-.031-.434.126-.975-.2-1.238a.837.837,0,0,0-.388-.148q-4.109-.8-8.222-1.6c-.489-.1-1.191-.023-1.213.5-.013.3.236.587.127.855-.118.286-.5.263-.781.365a1.138,1.138,0,0,0-.611,1.187,3.347,3.347,0,0,0,.515,1.335c-.537-.236-1.344-.277-1.88-.517a8.033,8.033,0,0,0-.471-1.918.68.68,0,0,0-.3-.478.608.608,0,0,0-.537-.067c-.707.116-1.413.226-2.12.342a.794.794,0,0,0-.484.2c-.275.31,0,.8-.013,1.229a1.13,1.13,0,0,1-.842.993,3,3,0,0,1-1.344-.018l-2.966-.485a4.853,4.853,0,0,0,2.242-1.589c.393-.49.6-1.4.035-1.636a1.281,1.281,0,0,0-.515-.042c-1.344.009-2.4-1.178-3.66-1.682a3.42,3.42,0,0,0-1.234-.24Z" transform="translate(-459.964 -305.76)" fill="#6c63ff"/>
  <path id="Path_123" data-name="Path 123" d="M704.045,453.746a1.543,1.543,0,0,1-1.335.67c-1.365-.125-1.941-2.209-3.293-2.444a.5.5,0,0,0-.358.037c-.2.116-.236.4-.249.642a8.413,8.413,0,0,0,.336,3.53c.641,1.608,2.3,2.957,1.954,4.662-1.876-.919-2.853-3.151-3.293-5.29s-.515-4.385-1.309-6.409c-.606.818-1.871.143-2.421-.716-.523-.813-.846-1.756-1.352-2.583a3.005,3.005,0,0,0-2.207-1.608,3.876,3.876,0,0,0-2.56,1.331,6.168,6.168,0,0,0-1.592,1.876,9,9,0,0,0-.41,3.646,5.784,5.784,0,0,1-1.152,3.719,2.446,2.446,0,0,1-3.389.434,4.121,4.121,0,0,1-.947-1.807,92.006,92.006,0,0,1-2.565-9.694c-.157.748-.781,1.714-1.374,1.275a1.293,1.293,0,0,1-.314-.434,9.19,9.19,0,0,0-5.226-3.89c-2.068-.712-4.244-1.044-6.29-1.83a15.741,15.741,0,0,1-3.267-1.723,2.863,2.863,0,0,0-.157,2.782,2.058,2.058,0,0,0,2.364,1.049c.454-.157.838-.49,1.287-.656a.976.976,0,0,1,1.252.379c.192.439-.1.97.048,1.432.214.7,1.213.753,1.562,1.391a1.339,1.339,0,0,1-.327,1.488,5.834,5.834,0,0,1-1.317.859c-1.466.864-2.508,2.338-3.791,3.484s-3.093,1.987-4.619,1.252c.362-1.954-1.832-3.387-2.238-5.332-.135-.642-.065-1.321-.253-1.945a6.283,6.283,0,0,0-1.653-2.209,8.979,8.979,0,0,1-2.246-6.307,9.263,9.263,0,0,0,0-2.407c-.17-.781-.785-1.539-1.544-1.506-1.732.083-3.917.222-4.824-1.345a1.509,1.509,0,0,1,0-1.807,1.57,1.57,0,0,1,1.252-.226c1.3.134,2.6.273,3.908.407a4.125,4.125,0,0,0,2.683-.333,1.636,1.636,0,0,0,.4-2.444c-.528-.434-1.479-.411-1.636-1.1-.127-.578.475-1.229.148-1.714-.231-.342-.755-.25-1.073.009a7.156,7.156,0,0,1-.9.836c-.624.342-1.365.014-2.037-.208s-1.57-.24-1.893.42c-.366.735.318,1.7-.039,2.444-.48.975-2.094.42-2.766,1.261-.768.961.523,2.4.266,3.632a2.035,2.035,0,0,1-2.107-.125,2.211,2.211,0,0,1-.881-2.014c.061-.555.336-1.123.153-1.645a1.856,1.856,0,0,0-.92-.892q-1.9-1.116-3.795-2.222a1.874,1.874,0,0,0,.65,2.07A6.924,6.924,0,0,1,638,427.492a2.164,2.164,0,0,1-.742,2.763.439.439,0,0,1-.38.069.555.555,0,0,1-.244-.347,8.5,8.5,0,0,0-3.28-4.551,3.745,3.745,0,0,0-4.973.841c-.249.379-.419.813-.637,1.215a6.5,6.5,0,0,1-5.963,3.073,1.1,1.1,0,0,1-.65-.162c-.375-.273-.358-.855-.3-1.335.083-.679.161-1.354.244-2.033a1.68,1.68,0,0,1,.423-1.114c.432-.36,1.051-.134,1.6-.143a2.04,2.04,0,0,0,1.836-1.5,2.509,2.509,0,0,0-.637-2.4c-.249-.25-.585-.564-.454-.9a.707.707,0,0,1,.493-.351c.981-.3,2.024-.379,2.988-.739a3.192,3.192,0,0,0,2.137-2.144c.07-.323.1-.716.375-.878a1.155,1.155,0,0,1,.436-.092,2.219,2.219,0,0,0,1.819-2.343,1.329,1.329,0,0,1,1.562.277,4.339,4.339,0,0,0,1.387,1c1.016.3,2-.661,3.053-.665a3.609,3.609,0,0,0,1.317,0c.423-.162.676-.605,1-.933s.894-.531,1.2-.176c-.087-.67-.17-1.335-.257-2a3.544,3.544,0,0,0,3.023-.582l-3.293-1.178a.7.7,0,0,1-.31-.176c-.24-.273,0-.7.192-1.007.467-.744.545-1.968-.222-2.338a1.791,1.791,0,0,0-1.623.347c-.8.471-1.605.947-2.408,1.418-.074.485.484.762.829,1.086a1.531,1.531,0,0,1,.38,1.616,1.4,1.4,0,0,1-1.287.957,1.931,1.931,0,0,1,.31,1.557l-1.618.125a.663.663,0,0,1-.523-.111c-.174-.162-.148-.448-.192-.688a1.433,1.433,0,0,0-1.187-1.1,3.877,3.877,0,0,0-1.653.162.955.955,0,0,1-.715-.018.751.751,0,0,1-.279-.379,2.019,2.019,0,0,1,.366-1.857,10.281,10.281,0,0,1,1.378-1.345,8.578,8.578,0,0,0,2.395-3.927c.89-.4,1.81-.933,2.7-1.331a10.39,10.39,0,0,1,2.246-.8,10.029,10.029,0,0,1,2.2-.111c1,.018,2.011.037,3.014.06a6.881,6.881,0,0,1,2.639.4,2.579,2.579,0,0,1,1.61,2.084.662.662,0,0,1-.2.587.674.674,0,0,1-.38.092c-.833.028-1.186.249-2.02.282a3.4,3.4,0,0,0,1.889,1.331c1.352.185,2.325-1.3,2.949-2.587a1.217,1.217,0,0,0,1.243,1.169,2.426,2.426,0,0,0,.938-.388,17.645,17.645,0,0,1,8.746-2.393,1,1,0,0,1,.72-1.1c.624-.129,1.182.439,1.483,1.03a5.621,5.621,0,0,0,.964,1.719c.475.444,1.4.42,1.583-.217.183-.615-.423-1.141-.925-1.506s-1.034-1.03-.694-1.566a42.548,42.548,0,0,1,7.782-1.326,3.146,3.146,0,0,0,1.309-.24,1.089,1.089,0,0,0,.611-1.141,2.893,2.893,0,0,1-3.1-1.238,25.161,25.161,0,0,1,8.122.2l2.273,2.042c-.432.476-1.008.924-.694,1.4a.935.935,0,0,0,.8.291c.55.009,1.1.023,1.644.023a69.422,69.422,0,0,1,19.524,43.321c-.916-.037-1.758,1.192-1.64,2.264a9.2,9.2,0,0,0,1.592,3.313,5.156,5.156,0,0,1,.27.54Z" transform="translate(-534.83 -291.479)" fill="#6c63ff"/>
  <path id="Path_127" data-name="Path 127" d="M57.689,0H284.672" transform="translate(-57.689 253.01)" fill="none" stroke="#3f3d56" stroke-width="2"/>
  <ellipse id="Ellipse_60" data-name="Ellipse 60" cx="5.533" cy="5.861" rx="5.533" ry="5.861" transform="translate(43.522 20.065)" fill="none" stroke="#3f3d56" stroke-miterlimit="10" stroke-width="2"/>
  <ellipse id="Ellipse_61" data-name="Ellipse 61" cx="5.533" cy="5.861" rx="5.533" ry="5.861" transform="translate(207.022 131.682)" fill="none" stroke="#3f3d56" stroke-miterlimit="10" stroke-width="2"/>
  <ellipse id="Ellipse_62" data-name="Ellipse 62" cx="5.533" cy="5.861" rx="5.533" ry="5.861" transform="translate(169.247 73.292)" fill="none" stroke="#3f3d56" stroke-miterlimit="10" stroke-width="2"/>
  <ellipse id="Ellipse_64" data-name="Ellipse 64" cx="8.185" cy="8.67" rx="8.185" ry="8.67" transform="translate(150.238 98.854)" fill="#fff"/>
  <path id="Path_124" data-name="Path 124" d="M13.336,1.788a5.222,5.222,0,0,0-7.589.253C3.634,4.294.462,15.519.462,15.519s10.7-3.572,12.813-5.824a5.757,5.757,0,0,0,.061-7.906ZM7.645,7.857a2.668,2.668,0,0,1,.028-3.664,2.42,2.42,0,0,1,3.517-.117,2.668,2.668,0,0,1-.028,3.664,2.42,2.42,0,0,1-3.517.117Z" transform="translate(107.209 122.496) rotate(-22)" fill="#57b894"/>
</svg>
